<svg width="41" height="40" viewBox="0 0 41 40" fill="none" xmlns="http://www.w3.org/2000/svg">
<rect x="0.5" width="40" height="40" rx="20" fill="#ADC9C4"/>
<path d="M18.1809 15.114C18.4786 14.9294 18.7492 14.969 18.9928 15.2326C19.2363 15.4699 19.2228 15.7203 18.9522 15.9839C17.7074 17.1175 16.9497 18.2907 16.679 19.5034C16.5979 19.8988 16.7196 20.0965 17.0444 20.0965C17.6127 20.0965 18.0862 20.3206 18.4651 20.7688C18.871 21.1906 19.074 21.7442 19.074 22.4296C19.074 23.1942 18.8439 23.8137 18.3839 24.2882C17.9509 24.7627 17.3556 25 16.5979 25C15.8672 25 15.2448 24.7364 14.7306 24.2091C14.2435 23.6819 14 22.9701 14 22.0737C14 19.3057 15.3936 16.9857 18.1809 15.114ZM26.0151 15.114C26.3128 14.9294 26.5834 14.969 26.827 15.2326C27.0705 15.4699 27.057 15.7203 26.7864 15.9839C25.5145 17.1175 24.7568 18.2907 24.5132 19.5034C24.432 19.8988 24.5538 20.0965 24.8786 20.0965C25.4468 20.0965 25.9204 20.3206 26.2993 20.7688C26.6781 21.1906 26.8675 21.7442 26.8675 22.4296C26.8675 23.1942 26.6375 23.8137 26.1775 24.2882C25.7445 24.7627 25.1627 25 24.432 25C23.7014 25 23.079 24.7364 22.5648 24.2091C22.0777 23.6819 21.8342 22.9701 21.8342 22.0737C21.8342 19.3057 23.2278 16.9857 26.0151 15.114Z" fill="black"/>
</svg>
