<svg width="91" height="27" viewBox="0 0 91 27" fill="none" xmlns="http://www.w3.org/2000/svg">
<path d="M86.9027 26.2399C85.9893 26.2399 85.2358 26.0002 84.6421 25.5206C84.0484 25.0183 83.7515 24.3104 83.7515 23.397C83.7515 22.4836 84.0484 21.7872 84.6421 21.3076C85.2358 20.8053 85.9893 20.5541 86.9027 20.5541C87.7933 20.5541 88.5354 20.8053 89.1291 21.3076C89.7228 21.7872 90.0197 22.4836 90.0197 23.397C90.0197 24.3104 89.7228 25.0183 89.1291 25.5206C88.5354 26.0002 87.7933 26.2399 86.9027 26.2399Z" fill="white"/>
<path d="M75.3763 26.2057C73.2298 26.2057 71.4715 25.8175 70.1015 25.0411C68.7314 24.2648 68.0463 23.3285 68.0463 22.2325C68.0463 21.6159 68.229 21.1478 68.5944 20.8281C68.9825 20.5084 69.4849 20.3486 70.1015 20.3486C70.7637 20.3486 71.3003 20.5884 71.7113 21.0679C72.1223 21.5246 72.4078 22.0384 72.5676 22.6092C72.7503 23.1801 73.07 23.7053 73.5267 24.1848C74.0062 24.6415 74.6227 24.8699 75.3763 24.8699C76.107 24.8699 76.7007 24.6758 77.1574 24.2876C77.6369 23.8994 77.8767 23.34 77.8767 22.6092C77.8767 21.7872 77.5456 21.1364 76.8834 20.6569C76.244 20.1773 75.4562 19.8234 74.52 19.5951C73.5838 19.3439 72.6475 19.0699 71.7113 18.773C70.7751 18.4533 69.9759 17.9167 69.3137 17.1631C68.6743 16.3868 68.3546 15.382 68.3546 14.149C68.3546 12.6875 68.994 11.4887 70.2727 10.5525C71.5743 9.59342 73.2527 9.11389 75.3078 9.11389C77.3858 9.11389 79.0755 9.52492 80.3771 10.347C81.7015 11.1462 82.3637 12.1052 82.3637 13.2242C82.3637 13.7265 82.1696 14.149 81.7814 14.4915C81.4161 14.834 80.9594 15.0053 80.4114 15.0053C79.772 15.0053 79.2582 14.7769 78.87 14.3202C78.4818 13.8407 78.2078 13.3269 78.048 12.7789C77.8881 12.208 77.6027 11.6942 77.1917 11.2375C76.7806 10.758 76.244 10.5182 75.5818 10.5182C74.9196 10.5182 74.383 10.7466 73.972 11.2033C73.5609 11.6371 73.3554 12.1737 73.3554 12.8131C73.3554 13.4525 73.5267 13.9891 73.8692 14.423C74.2117 14.8568 74.657 15.1879 75.205 15.4163C75.7531 15.6446 76.3582 15.8616 77.0204 16.0671C77.6826 16.2498 78.3448 16.4667 79.007 16.7179C79.6921 16.9462 80.3086 17.2317 80.8566 17.5742C81.4047 17.9167 81.8499 18.4076 82.1925 19.047C82.535 19.6636 82.7062 20.4171 82.7062 21.3077C82.7062 22.7234 82.044 23.8994 80.7196 24.8356C79.3952 25.749 77.6141 26.2057 75.3763 26.2057Z" fill="white"/>
<path d="M58.5557 26.24C55.8383 26.24 53.5891 25.4065 51.808 23.7396C50.0497 22.0498 49.1706 19.9947 49.1706 17.5742C49.1706 15.1309 50.0383 13.11 51.7738 11.5115C53.5092 9.91311 55.5986 9.11389 58.0419 9.11389C60.6679 9.11389 62.86 9.94736 64.6183 11.6143C66.3766 13.2584 67.2557 15.3021 67.2557 17.7454C67.2557 20.1888 66.4223 22.2211 64.7553 23.8423C63.1112 25.4408 61.0447 26.24 58.5557 26.24ZM59.1722 24.7329C60.1085 24.7329 60.8277 24.299 61.3301 23.4313C61.8553 22.5636 62.1179 21.3419 62.1179 19.7663C62.1179 18.4647 61.9238 17.1289 61.5356 15.7588C61.1703 14.3659 60.6108 13.1671 59.8573 12.1623C59.1037 11.1348 58.2703 10.621 57.3569 10.621C55.2561 10.621 54.2057 12.2879 54.2057 15.6218C54.2057 16.8549 54.3883 18.1565 54.7537 19.5265C55.1419 20.8966 55.7242 22.1069 56.5006 23.1573C57.2998 24.2077 58.1903 24.7329 59.1722 24.7329Z" fill="white"/>
<path d="M46.4006 9.11393C47.3825 9.11393 48.1474 9.41078 48.6955 10.0045C49.2663 10.5754 49.5518 11.3175 49.5518 12.2309C49.5518 14.0348 48.8211 14.9368 47.3596 14.9368C46.7659 14.9368 46.2978 14.7884 45.9553 14.4915C45.6356 14.1718 45.4415 13.8293 45.373 13.464C45.3045 13.0986 45.1675 12.7675 44.962 12.4706C44.7565 12.151 44.4482 11.9911 44.0372 11.9911C43.4206 11.9911 42.9639 12.3565 42.6671 13.0872C42.3702 13.8179 42.2218 14.7084 42.2218 15.7588V22.6093C42.2218 23.0203 42.3588 23.3857 42.6328 23.7053C42.9297 24.0022 43.2151 24.2648 43.4891 24.4931C43.786 24.7215 43.9344 24.9498 43.9344 25.1782V25.3152C43.9344 25.7034 43.6832 25.8975 43.1809 25.8975H36.8442C36.319 25.8975 36.0564 25.7034 36.0564 25.3152V25.1782C36.0564 24.9498 36.2733 24.5959 36.7072 24.1164C37.1639 23.6368 37.3922 23.1345 37.3922 22.6093V14.5943C37.3922 14.0462 37.1297 13.5553 36.6045 13.1214C36.0793 12.6876 35.8167 12.3565 35.8167 12.1281V11.9911C35.8167 11.6714 36.0564 11.3974 36.5359 11.1691L40.6462 9.25094C41.3769 8.90841 41.7423 9.13676 41.7423 9.93598V12.5049C42.5187 10.2442 44.0714 9.11393 46.4006 9.11393Z" fill="white"/>
<path d="M34.0626 20.6911C34.2681 20.4171 34.5193 20.3258 34.8162 20.4171C35.113 20.5084 35.25 20.7254 35.2272 21.0679C35.113 22.2553 34.428 23.4199 33.1721 24.5616C31.9162 25.6805 30.2835 26.24 28.274 26.24C25.8535 26.24 23.8669 25.4408 22.3141 23.8423C20.7614 22.2439 19.985 20.1431 19.985 17.5399C19.985 15.0966 20.7956 13.0871 22.4169 11.5115C24.0382 9.91311 25.9905 9.11389 28.274 9.11389C30.352 9.11389 31.9504 9.60484 33.0693 10.5867C34.1882 11.5686 34.7477 12.699 34.7477 13.9777C34.7477 15.0281 34.2453 15.7816 33.2406 16.2383L25.6366 19.6978C26.5728 21.6844 28.0799 22.6777 30.1579 22.6777C31.0256 22.6777 31.802 22.4951 32.487 22.1297C33.1949 21.7415 33.7201 21.262 34.0626 20.6911ZM27.6575 10.621C26.7669 10.621 26.059 11.0548 25.5338 11.9226C25.0086 12.7675 24.746 13.8521 24.746 15.1765C24.746 16.2954 24.8602 17.2773 25.0886 18.1222L29.5071 15.8958C30.1008 15.599 30.3976 15.0624 30.3976 14.286C30.3976 13.5096 30.1465 12.7104 29.6441 11.8883C29.1417 11.0434 28.4795 10.621 27.6575 10.621Z" fill="white"/>
<path d="M18.3152 22.5408C18.3608 23.0888 18.5778 23.6026 18.9659 24.0821C19.3541 24.5617 19.5482 24.927 19.5482 25.1782V25.3152C19.5482 25.7034 19.297 25.8975 18.7947 25.8975H12.8348C12.3324 25.8975 12.0813 25.7034 12.0813 25.3152V25.1782C12.0813 24.9498 12.2868 24.5959 12.6978 24.1164C13.1317 23.6368 13.3372 23.1231 13.3143 22.575L12.9718 15.9986C12.812 12.7104 11.8187 11.0663 9.99188 11.0663C9.07849 11.0663 8.35919 11.4088 7.83399 12.0939C7.33163 12.7789 7.08044 13.6923 7.08044 14.834V22.6093C7.08044 23.1345 7.32021 23.6368 7.79974 24.1164C8.3021 24.5959 8.55329 24.9498 8.55329 25.1782V25.3152C8.55329 25.7034 8.27927 25.8975 7.73123 25.8975H1.39458C0.869385 25.8975 0.606785 25.7034 0.606785 25.3152V25.1782C0.606785 24.9498 0.84655 24.5959 1.32608 24.1164C1.80561 23.6368 2.04538 23.1345 2.04538 22.6093V5.5517C2.04538 5.00367 1.78278 4.51272 1.25758 4.07886C0.755211 3.645 0.504028 3.3139 0.504028 3.08555V2.98279C0.504028 2.64027 0.732376 2.35484 1.18907 2.12649L5.71036 0.139863C6.09855 -0.0199809 6.3954 -0.0428154 6.60091 0.0713597C6.82926 0.185533 6.94343 0.413881 6.94343 0.756402L6.90918 11.0321C7.98242 9.7533 9.4781 9.11393 11.3962 9.11393C13.1317 9.11393 14.6045 9.6848 15.8147 10.8265C17.025 11.9454 17.71 13.7151 17.8699 16.1356L18.3152 22.5408Z" fill="white"/>
</svg>
