<svg width="1312" height="384" viewBox="0 0 1312 384" fill="none" xmlns="http://www.w3.org/2000/svg">
<g opacity="0.6">
<path d="M1266.32 384C1252.93 384 1241.88 380.491 1233.18 373.473C1224.48 366.122 1220.13 355.763 1220.13 342.396C1220.13 329.029 1224.48 318.837 1233.18 311.82C1241.88 304.468 1252.93 300.792 1266.32 300.792C1279.37 300.792 1290.25 304.468 1298.95 311.82C1307.65 318.837 1312 329.029 1312 342.396C1312 355.763 1307.65 366.122 1298.95 373.473C1290.25 380.491 1279.37 384 1266.32 384Z" fill="url(#paint0_linear_510_2216)"/>
<path d="M1097.38 383.499C1065.92 383.499 1040.15 377.818 1020.07 366.456C999.986 355.095 989.946 341.394 989.946 325.354C989.946 316.331 992.623 309.481 997.978 304.803C1003.67 300.124 1011.03 297.785 1020.07 297.785C1029.77 297.785 1037.64 301.294 1043.66 308.311C1049.69 314.995 1053.87 322.513 1056.21 330.868C1058.89 339.222 1063.58 346.908 1070.27 353.925C1077.3 360.609 1086.33 363.95 1097.38 363.95C1108.09 363.95 1116.79 361.11 1123.48 355.429C1130.51 349.748 1134.03 341.561 1134.03 330.868C1134.03 318.838 1129.17 309.314 1119.47 302.296C1110.1 295.279 1098.55 290.099 1084.83 286.757C1071.11 283.082 1057.38 279.072 1043.66 274.727C1029.94 270.049 1018.23 262.196 1008.52 251.169C999.149 239.807 994.464 225.104 994.464 207.058C994.464 185.672 1003.83 168.128 1022.58 154.427C1041.65 140.392 1066.25 133.375 1096.37 133.375C1126.83 133.375 1151.6 139.39 1170.67 151.42C1190.09 163.115 1199.79 177.15 1199.79 193.525C1199.79 200.876 1196.95 207.058 1191.26 212.071C1185.9 217.084 1179.21 219.59 1171.18 219.59C1161.8 219.59 1154.27 216.248 1148.58 209.565C1142.9 202.547 1138.88 195.028 1136.54 187.008C1134.19 178.654 1130.01 171.135 1123.99 164.452C1117.96 157.435 1110.1 153.926 1100.39 153.926C1090.68 153.926 1082.82 157.267 1076.8 163.951C1070.77 170.3 1067.76 178.153 1067.76 187.51C1067.76 196.866 1070.27 204.719 1075.29 211.068C1080.31 217.418 1086.84 222.263 1094.87 225.605C1102.9 228.946 1111.77 232.121 1121.48 235.129C1131.18 237.802 1140.89 240.976 1150.59 244.652C1160.63 247.994 1169.67 252.171 1177.7 257.184C1185.73 262.196 1192.26 269.381 1197.28 278.737C1202.3 287.76 1204.81 298.787 1204.81 311.82C1204.81 332.538 1195.11 349.748 1175.69 363.449C1156.28 376.816 1130.18 383.499 1097.38 383.499Z" fill="url(#paint1_linear_510_2216)"/>
<path d="M850.846 384C811.019 384 778.053 371.803 751.947 347.409C726.177 322.68 713.292 292.605 713.292 257.184C713.292 221.428 726.01 191.854 751.445 168.462C776.881 145.07 807.505 133.375 843.316 133.375C881.804 133.375 913.933 145.572 939.704 169.966C965.474 194.026 978.36 223.934 978.36 259.69C978.36 295.446 966.144 325.187 941.712 348.913C917.615 372.304 887.326 384 850.846 384ZM859.882 361.945C873.604 361.945 884.147 355.596 891.51 342.898C899.207 330.199 903.056 312.321 903.056 289.264C903.056 270.216 900.211 250.667 894.522 230.617C889.167 210.233 880.967 192.689 869.923 177.986C858.878 162.948 846.662 155.43 833.275 155.43C802.484 155.43 787.089 179.824 787.089 228.612C787.089 246.657 789.766 265.705 795.121 285.755C800.811 305.805 809.345 323.516 820.725 338.888C832.438 354.259 845.491 361.945 859.882 361.945Z" fill="url(#paint2_linear_510_2216)"/>
<path d="M672.69 133.375C687.082 133.375 698.294 137.719 706.326 146.407C714.693 154.761 718.876 165.622 718.876 178.989C718.876 205.388 708.167 218.587 686.747 218.587C678.045 218.587 671.184 216.415 666.164 212.071C661.479 207.393 658.634 202.38 657.63 197.034C656.626 191.687 654.618 186.841 651.605 182.497C648.593 177.819 644.075 175.48 638.051 175.48C629.014 175.48 622.321 180.826 617.97 191.52C613.619 202.213 611.444 215.246 611.444 230.617V330.868C611.444 336.883 613.452 342.229 617.468 346.908C621.819 351.252 626.002 355.095 630.018 358.437C634.369 361.778 636.545 365.12 636.545 368.462V370.467C636.545 376.147 632.863 378.988 625.5 378.988H532.626C524.928 378.988 521.08 376.147 521.08 370.467V368.462C521.08 365.12 524.259 359.94 530.618 352.923C537.312 345.905 540.658 338.554 540.658 330.868V213.575C540.658 205.555 536.81 198.37 529.112 192.021C521.414 185.672 517.565 180.826 517.565 177.485V175.48C517.565 170.801 521.08 166.791 528.108 163.45L588.351 135.38C599.06 130.367 604.415 133.709 604.415 145.405V182.999C615.794 149.916 638.553 133.375 672.69 133.375Z" fill="url(#paint3_linear_510_2216)"/>
<path d="M491.857 302.798C494.869 298.787 498.55 297.451 502.901 298.787C507.252 300.124 509.26 303.299 508.925 308.311C507.252 325.688 497.212 342.731 478.804 359.439C460.397 375.813 436.467 384 407.015 384C371.539 384 342.421 372.304 319.663 348.913C296.905 325.521 285.525 294.777 285.525 256.682C285.525 220.926 297.407 191.52 321.169 168.462C344.931 145.07 373.547 133.375 407.015 133.375C437.471 133.375 460.899 140.559 477.298 154.928C493.697 169.298 501.897 185.839 501.897 204.552C501.897 219.924 494.534 230.951 479.808 237.635L368.359 288.261C382.081 317.334 404.17 331.87 434.626 331.87C447.344 331.87 458.723 329.197 468.764 323.85C479.139 318.169 486.836 311.152 491.857 302.798ZM397.978 155.43C384.926 155.43 374.551 161.779 366.853 174.477C359.155 186.841 355.307 202.714 355.307 222.096C355.307 238.47 356.98 252.839 360.327 265.204L425.088 232.622C433.789 228.278 438.14 220.425 438.14 209.063C438.14 197.702 434.459 186.006 427.096 173.976C419.733 161.612 410.027 155.43 397.978 155.43Z" fill="url(#paint4_linear_510_2216)"/>
<path d="M261.052 329.865C261.721 337.885 264.9 345.404 270.59 352.422C276.28 359.439 279.124 364.786 279.124 368.462V370.467C279.124 376.147 275.443 378.988 268.08 378.988H180.728C173.365 378.988 169.684 376.147 169.684 370.467V368.462C169.684 365.12 172.696 359.94 178.72 352.923C185.079 345.905 188.091 338.387 187.756 330.367L182.736 234.126C180.393 186.006 165.835 161.946 139.06 161.946C125.673 161.946 115.13 166.959 107.433 176.984C100.07 187.009 96.3883 200.375 96.3883 217.084V330.868C96.3883 338.554 99.9025 345.905 106.931 352.923C114.294 359.94 117.975 365.12 117.975 368.462V370.467C117.975 376.147 113.959 378.988 105.927 378.988H13.0526C5.35491 378.988 1.50607 376.147 1.50607 370.467V368.462C1.50607 365.12 5.02022 359.94 12.0485 352.923C19.0768 345.905 22.591 338.554 22.591 330.868V81.2445C22.591 73.2245 18.7422 66.0399 11.0445 59.6907C3.6815 53.3415 0 48.4961 0 45.1544V43.6507C0 38.6381 3.34682 34.4611 10.0404 31.1194L76.3074 2.04678C81.997 -0.292404 86.3479 -0.626567 89.36 1.04429C92.7068 2.71513 94.3802 6.0568 94.3802 11.0693L93.8782 161.445C109.608 142.731 131.53 133.375 159.643 133.375C185.079 133.375 206.666 141.729 224.404 158.437C242.142 174.811 252.183 200.709 254.525 236.131L261.052 329.865Z" fill="url(#paint5_linear_510_2216)"/>
</g>
<defs>
<linearGradient id="paint0_linear_510_2216" x1="1266.07" y1="300.792" x2="1266.07" y2="384" gradientUnits="userSpaceOnUse">
<stop stop-color="#E9E9E9"/>
<stop offset="1" stop-color="#E9E9E9" stop-opacity="0"/>
</linearGradient>
<linearGradient id="paint1_linear_510_2216" x1="1097.38" y1="133.375" x2="1097.38" y2="383.499" gradientUnits="userSpaceOnUse">
<stop stop-color="#E9E9E9"/>
<stop offset="1" stop-color="#E9E9E9" stop-opacity="0"/>
</linearGradient>
<linearGradient id="paint2_linear_510_2216" x1="845.826" y1="133.375" x2="845.826" y2="384" gradientUnits="userSpaceOnUse">
<stop stop-color="#E9E9E9"/>
<stop offset="1" stop-color="#E9E9E9" stop-opacity="0"/>
</linearGradient>
<linearGradient id="paint3_linear_510_2216" x1="618.221" y1="133.124" x2="618.221" y2="378.988" gradientUnits="userSpaceOnUse">
<stop stop-color="#E9E9E9"/>
<stop offset="1" stop-color="#E9E9E9" stop-opacity="0"/>
</linearGradient>
<linearGradient id="paint4_linear_510_2216" x1="397.243" y1="133.375" x2="397.243" y2="384" gradientUnits="userSpaceOnUse">
<stop stop-color="#E9E9E9"/>
<stop offset="1" stop-color="#E9E9E9" stop-opacity="0"/>
</linearGradient>
<linearGradient id="paint5_linear_510_2216" x1="139.562" y1="0" x2="139.562" y2="378.988" gradientUnits="userSpaceOnUse">
<stop stop-color="#E9E9E9"/>
<stop offset="1" stop-color="#E9E9E9" stop-opacity="0"/>
</linearGradient>
</defs>
</svg>
