<svg width="91" height="27" viewBox="0 0 91 27" fill="none" xmlns="http://www.w3.org/2000/svg">
<path d="M86.9027 26.2399C85.9893 26.2399 85.2357 26.0002 84.642 25.5206C84.0483 25.0183 83.7515 24.3104 83.7515 23.397C83.7515 22.4836 84.0483 21.7872 84.642 21.3076C85.2357 20.8053 85.9893 20.5541 86.9027 20.5541C87.7932 20.5541 88.5354 20.8053 89.1291 21.3076C89.7228 21.7872 90.0196 22.4836 90.0196 23.397C90.0196 24.3104 89.7228 25.0183 89.1291 25.5206C88.5354 26.0002 87.7932 26.2399 86.9027 26.2399Z" fill="black"/>
<path d="M75.3763 26.2057C73.2299 26.2057 71.4716 25.8175 70.1015 25.0411C68.7314 24.2648 68.0464 23.3285 68.0464 22.2325C68.0464 21.6159 68.2291 21.1478 68.5944 20.8281C68.9826 20.5084 69.485 20.3486 70.1015 20.3486C70.7637 20.3486 71.3003 20.5884 71.7114 21.0679C72.1224 21.5246 72.4078 22.0384 72.5677 22.6092C72.7503 23.1801 73.07 23.7053 73.5267 24.1848C74.0063 24.6415 74.6228 24.8699 75.3763 24.8699C76.1071 24.8699 76.7008 24.6758 77.1575 24.2876C77.637 23.8994 77.8768 23.34 77.8768 22.6092C77.8768 21.7872 77.5457 21.1364 76.8834 20.6569C76.2441 20.1773 75.4563 19.8234 74.52 19.5951C73.5838 19.3439 72.6476 19.0699 71.7114 18.773C70.7751 18.4533 69.9759 17.9167 69.3137 17.1631C68.6743 16.3868 68.3547 15.382 68.3547 14.149C68.3547 12.6875 68.994 11.4887 70.2728 10.5525C71.5744 9.59342 73.2527 9.11389 75.3078 9.11389C77.3858 9.11389 79.0756 9.52492 80.3772 10.347C81.7016 11.1462 82.3638 12.1052 82.3638 13.2242C82.3638 13.7265 82.1697 14.149 81.7815 14.4915C81.4161 14.834 80.9595 15.0053 80.4114 15.0053C79.772 15.0053 79.2583 14.7769 78.8701 14.3202C78.4819 13.8407 78.2079 13.3269 78.048 12.7789C77.8882 12.208 77.6027 11.6942 77.1917 11.2375C76.7807 10.758 76.2441 10.5182 75.5819 10.5182C74.9197 10.5182 74.383 10.7466 73.972 11.2033C73.561 11.6371 73.3555 12.1737 73.3555 12.8131C73.3555 13.4525 73.5267 13.9891 73.8693 14.423C74.2118 14.8568 74.6571 15.1879 75.2051 15.4163C75.7531 15.6446 76.3582 15.8616 77.0205 16.0671C77.6827 16.2498 78.3449 16.4667 79.0071 16.7179C79.6921 16.9462 80.3087 17.2317 80.8567 17.5742C81.4047 17.9167 81.85 18.4076 82.1925 19.047C82.535 19.6636 82.7063 20.4171 82.7063 21.3077C82.7063 22.7234 82.0441 23.8994 80.7197 24.8356C79.3953 25.749 77.6142 26.2057 75.3763 26.2057Z" fill="black"/>
<path d="M58.5555 26.24C55.8382 26.24 53.5889 25.4065 51.8078 23.7396C50.0496 22.0498 49.1704 19.9947 49.1704 17.5742C49.1704 15.1309 50.0381 13.11 51.7736 11.5115C53.509 9.91311 55.5984 9.11389 58.0417 9.11389C60.6677 9.11389 62.8599 9.94736 64.6181 11.6143C66.3764 13.2584 67.2556 15.3021 67.2556 17.7454C67.2556 20.1888 66.4221 22.2211 64.7551 23.8423C63.111 25.4408 61.0445 26.24 58.5555 26.24ZM59.172 24.7329C60.1083 24.7329 60.8276 24.299 61.3299 23.4313C61.8551 22.5636 62.1177 21.3419 62.1177 19.7663C62.1177 18.4647 61.9236 17.1289 61.5354 15.7588C61.1701 14.3659 60.6106 13.1671 59.8571 12.1623C59.1035 11.1348 58.2701 10.621 57.3567 10.621C55.2559 10.621 54.2055 12.2879 54.2055 15.6218C54.2055 16.8549 54.3882 18.1565 54.7535 19.5265C55.1417 20.8966 55.724 22.1069 56.5004 23.1573C57.2996 24.2077 58.1902 24.7329 59.172 24.7329Z" fill="black"/>
<path d="M46.4003 9.11393C47.3822 9.11393 48.1472 9.41078 48.6952 10.0045C49.2661 10.5754 49.5515 11.3175 49.5515 12.2309C49.5515 14.0348 48.8208 14.9368 47.3594 14.9368C46.7657 14.9368 46.2976 14.7884 45.955 14.4915C45.6354 14.1718 45.4413 13.8293 45.3728 13.464C45.3043 13.0986 45.1672 12.7675 44.9617 12.4706C44.7562 12.151 44.448 11.9911 44.0369 11.9911C43.4204 11.9911 42.9637 12.3565 42.6668 13.0872C42.37 13.8179 42.2216 14.7084 42.2216 15.7588V22.6093C42.2216 23.0203 42.3586 23.3857 42.6326 23.7053C42.9294 24.0022 43.2149 24.2648 43.4889 24.4931C43.7857 24.7215 43.9342 24.9498 43.9342 25.1782V25.3152C43.9342 25.7034 43.683 25.8975 43.1806 25.8975H36.844C36.3188 25.8975 36.0562 25.7034 36.0562 25.3152V25.1782C36.0562 24.9498 36.2731 24.5959 36.707 24.1164C37.1637 23.6368 37.392 23.1345 37.392 22.6093V14.5943C37.392 14.0462 37.1294 13.5553 36.6042 13.1214C36.079 12.6876 35.8164 12.3565 35.8164 12.1281V11.9911C35.8164 11.6714 36.0562 11.3974 36.5357 11.1691L40.646 9.25094C41.3767 8.90841 41.742 9.13676 41.742 9.93598V12.5049C42.5184 10.2442 44.0712 9.11393 46.4003 9.11393Z" fill="black"/>
<path d="M34.0625 20.6911C34.268 20.4171 34.5192 20.3258 34.816 20.4171C35.1129 20.5084 35.2499 20.7254 35.2271 21.0679C35.1129 22.2553 34.4279 23.4199 33.1719 24.5616C31.916 25.6805 30.2833 26.24 28.2739 26.24C25.8534 26.24 23.8668 25.4408 22.314 23.8423C20.7612 22.2439 19.9849 20.1431 19.9849 17.5399C19.9849 15.0966 20.7955 13.0871 22.4168 11.5115C24.038 9.91311 25.9904 9.11389 28.2739 9.11389C30.3519 9.11389 31.9503 9.60484 33.0692 10.5867C34.1881 11.5686 34.7475 12.699 34.7475 13.9777C34.7475 15.0281 34.2452 15.7816 33.2404 16.2383L25.6365 19.6978C26.5727 21.6844 28.0798 22.6777 30.1578 22.6777C31.0255 22.6777 31.8019 22.4951 32.4869 22.1297C33.1948 21.7415 33.72 21.262 34.0625 20.6911ZM27.6573 10.621C26.7668 10.621 26.0589 11.0548 25.5337 11.9226C25.0085 12.7675 24.7459 13.8521 24.7459 15.1765C24.7459 16.2954 24.8601 17.2773 25.0884 18.1222L29.507 15.8958C30.1007 15.599 30.3975 15.0624 30.3975 14.286C30.3975 13.5096 30.1463 12.7104 29.644 11.8883C29.1416 11.0434 28.4794 10.621 27.6573 10.621Z" fill="#70978F"/>
<path d="M18.315 22.5408C18.3607 23.0888 18.5776 23.6026 18.9658 24.0821C19.354 24.5617 19.5481 24.927 19.5481 25.1782V25.3152C19.5481 25.7034 19.2969 25.8975 18.7946 25.8975H12.8347C12.3323 25.8975 12.0811 25.7034 12.0811 25.3152V25.1782C12.0811 24.9498 12.2867 24.5959 12.6977 24.1164C13.1315 23.6368 13.3371 23.1231 13.3142 22.575L12.9717 15.9986C12.8119 12.7104 11.8185 11.0663 9.99176 11.0663C9.07836 11.0663 8.35907 11.4088 7.83387 12.0939C7.3315 12.7789 7.08032 13.6923 7.08032 14.834V22.6093C7.08032 23.1345 7.32009 23.6368 7.79962 24.1164C8.30198 24.5959 8.55316 24.9498 8.55316 25.1782V25.3152C8.55316 25.7034 8.27915 25.8975 7.73111 25.8975H1.39446C0.869263 25.8975 0.606663 25.7034 0.606663 25.3152V25.1782C0.606663 24.9498 0.846428 24.5959 1.32596 24.1164C1.80549 23.6368 2.04525 23.1345 2.04525 22.6093V5.5517C2.04525 5.00367 1.78265 4.51272 1.25745 4.07886C0.755089 3.645 0.503906 3.3139 0.503906 3.08555V2.98279C0.503906 2.64027 0.732254 2.35484 1.18895 2.12649L5.71024 0.139863C6.09843 -0.0199809 6.39528 -0.0428154 6.60079 0.0713597C6.82914 0.185533 6.94331 0.413881 6.94331 0.756402L6.90906 11.0321C7.9823 9.7533 9.47797 9.11393 11.3961 9.11393C13.1315 9.11393 14.6044 9.6848 15.8146 10.8265C17.0249 11.9454 17.7099 13.7151 17.8698 16.1356L18.315 22.5408Z" fill="#70978F"/>
</svg>
