<svg width="64" height="64" viewBox="0 0 64 64" fill="none" xmlns="http://www.w3.org/2000/svg">
<rect width="64" height="64" rx="32" fill="#F7F7F7"/>
<path fill-rule="evenodd" clip-rule="evenodd" d="M32.9628 22.286C32.9025 22.2052 32.8266 22.1374 32.7396 22.0866C32.6525 22.0359 32.5561 22.0032 32.4562 21.9905C32.3562 21.9778 32.2547 21.9854 32.1578 22.0128C32.0608 22.0402 31.9703 22.0868 31.8918 22.15C29.9753 23.6885 28.7112 25.8946 28.3528 28.326C27.696 27.8497 27.1202 27.2706 26.6478 26.611C26.5836 26.5213 26.5005 26.4468 26.4042 26.3929C26.308 26.3391 26.2011 26.3071 26.0911 26.2992C25.9811 26.2914 25.8707 26.3079 25.7678 26.3476C25.6649 26.3873 25.572 26.4493 25.4958 26.529C24.1751 27.9105 23.3285 29.6766 23.0787 31.5715C22.8289 33.4664 23.1887 35.3915 24.1062 37.0682C25.0236 38.7449 26.451 40.0859 28.1816 40.8971C29.9122 41.7083 31.856 41.9475 33.7316 41.5801C35.6073 41.2127 37.3172 40.2577 38.6138 38.8535C39.9104 37.4493 40.7263 35.6688 40.9433 33.7699C41.1603 31.871 40.7672 29.9523 39.8208 28.2918C38.8745 26.6313 37.4241 25.3151 35.6798 24.534C34.6075 24.0125 33.6758 23.2417 32.9628 22.286ZM35.7498 34.25C35.7494 34.7924 35.6314 35.3283 35.4038 35.8207C35.1762 36.313 34.8445 36.7502 34.4316 37.102C34.0187 37.4537 33.5344 37.7117 33.0121 37.8581C32.4898 38.0046 31.942 38.036 31.4064 37.9501C30.8708 37.8643 30.3602 37.6633 29.9098 37.361C29.4594 37.0587 29.08 36.6622 28.7977 36.1991C28.5154 35.7359 28.3369 35.217 28.2746 34.6781C28.2123 34.1393 28.2676 33.5933 28.4368 33.078C29.0648 33.543 29.7868 33.888 30.5698 34.078C30.7821 32.7089 31.4624 31.4558 32.4948 30.532C33.3958 30.6519 34.2226 31.0951 34.8213 31.779C35.42 32.4629 35.75 33.341 35.7498 34.25Z" fill="#1C5353"/>
</svg>
