<svg width="64" height="64" viewBox="0 0 64 64" fill="none" xmlns="http://www.w3.org/2000/svg">
<rect width="64" height="64" rx="32" fill="#F7F7F7"/>
<path d="M35 22C35.2549 22.0003 35.5 22.0979 35.6854 22.2728C35.8707 22.4478 35.9822 22.687 35.9972 22.9414C36.0121 23.1958 35.9293 23.4464 35.7657 23.6418C35.6021 23.8373 35.3701 23.9629 35.117 23.993L35 24C34.307 24 33.67 24.694 33.309 25.552C33.9259 25.238 34.6003 25.053 35.291 25.008L35.556 25C38.538 25 41 28.053 41 31.32C41 34.867 40.394 37.182 38.577 39.898C36.885 42.149 34.485 42.651 32.167 41.132C32.12 41.1019 32.0657 41.0852 32.0099 41.0834C31.9541 41.0816 31.8988 41.095 31.85 41.122C29.515 42.65 27.115 42.149 25.39 39.852C23.607 37.184 23 34.868 23 31.32L23.004 31.098C23.112 27.917 25.53 25 28.444 25C29.384 25 30.296 25.291 31.132 25.792C31.551 23.842 32.95 22 35 22ZM27.966 28.154C26.606 29.012 26 30.214 26 32C26 32.2652 26.1054 32.5196 26.2929 32.7071C26.4804 32.8946 26.7348 33 27 33C27.2652 33 27.5196 32.8946 27.7071 32.7071C27.8946 32.5196 28 32.2652 28 32C28 30.875 28.28 30.322 29.034 29.846C29.2584 29.7044 29.4173 29.4794 29.4758 29.2206C29.5343 28.9618 29.4876 28.6904 29.346 28.466C29.2044 28.2416 28.9794 28.0827 28.7206 28.0242C28.4618 27.9657 28.1904 28.0124 27.966 28.154Z" fill="#1C5353"/>
</svg>
