<svg width="64" height="64" viewBox="0 0 64 64" fill="none" xmlns="http://www.w3.org/2000/svg">
<rect width="64" height="64" rx="32" fill="#F7F7F7"/>
<path d="M32 22C37.523 22 42 26.477 42 32C42.0021 34.6255 40.9715 37.1464 39.1309 39.0186C37.2902 40.8908 34.7872 41.9641 32.162 42.0066C29.5369 42.0491 27.0003 41.0576 25.1 39.246C23.1997 37.4344 22.088 34.9482 22.005 32.324L22 32L22.004 31.72C22.152 26.327 26.57 22 32 22ZM32.01 35L31.883 35.007C31.64 35.0359 31.4159 35.153 31.2534 35.336C31.0909 35.519 31.0011 35.7552 31.0011 36C31.0011 36.2448 31.0909 36.481 31.2534 36.664C31.4159 36.847 31.64 36.9641 31.883 36.993L32 37L32.127 36.993C32.37 36.9641 32.5941 36.847 32.7566 36.664C32.9191 36.481 33.0089 36.2448 33.0089 36C33.0089 35.7552 32.9191 35.519 32.7566 35.336C32.5941 35.153 32.37 35.0359 32.127 35.007L32.01 35ZM32 27C31.7551 27 31.5187 27.09 31.3356 27.2527C31.1526 27.4155 31.0357 27.6397 31.007 27.883L31 28V32L31.007 32.117C31.0359 32.36 31.153 32.5841 31.336 32.7466C31.519 32.9091 31.7552 32.9989 32 32.9989C32.2448 32.9989 32.481 32.9091 32.664 32.7466C32.847 32.5841 32.9641 32.36 32.993 32.117L33 32V28L32.993 27.883C32.9643 27.6397 32.8474 27.4155 32.6644 27.2527C32.4813 27.09 32.2449 27 32 27Z" fill="#1C5353"/>
</svg>
