<svg width="48" height="48" viewBox="0 0 48 48" fill="none" xmlns="http://www.w3.org/2000/svg">
<rect width="48" height="48" rx="16" fill="#FFF2C0"/>
<path fill-rule="evenodd" clip-rule="evenodd" d="M19.6304 12.4688H28.3696C29.5999 12.4688 30.6064 13.4753 30.6064 14.7056V33.2944C30.6064 34.5247 29.5999 35.5312 28.3696 35.5312H19.6304C18.4001 35.5312 17.3936 34.5247 17.3936 33.2944V14.7056C17.3935 13.4753 18.4001 12.4688 19.6304 12.4688ZM28.1015 20.298C28.1015 18.0327 26.2652 16.1965 24 16.1965C21.7346 16.1965 19.8984 18.0327 19.8984 20.298C19.8984 22.5632 21.7346 24.3996 24 24.3996C26.2652 24.3996 28.1015 22.5632 28.1015 20.298ZM24.608 18.1887H23.392C23.3298 18.1888 23.2703 18.2135 23.2264 18.2575C23.1824 18.3014 23.1577 18.3609 23.1576 18.423V19.4557H22.125C22.0629 19.4558 22.0033 19.4805 21.9594 19.5244C21.9155 19.5684 21.8907 19.6279 21.8906 19.69V20.9061C21.8906 21.0352 21.9959 21.1405 22.125 21.1405H23.1576V22.1731C23.1576 22.3022 23.2629 22.4075 23.392 22.4075H24.608C24.7371 22.4075 24.8424 22.3022 24.8424 22.1731V21.1405H25.875C26.0041 21.1405 26.1094 21.0352 26.1094 20.9061V19.69C26.1094 19.5609 26.0041 19.4557 25.875 19.4557H24.8424V18.423C24.8424 18.294 24.7371 18.1887 24.608 18.1887ZM20.625 29.3025H27.375C27.6339 29.3025 27.8437 29.0927 27.8437 28.8338C27.8437 28.5749 27.6339 28.365 27.375 28.365H20.625C20.3661 28.365 20.1562 28.5749 20.1562 28.8338C20.1562 29.0927 20.3661 29.3025 20.625 29.3025ZM20.625 27.1366H27.375C27.6339 27.1366 27.8437 26.9267 27.8437 26.6678C27.8437 26.409 27.6339 26.1991 27.375 26.1991H20.625C20.3661 26.1991 20.1562 26.409 20.1562 26.6678C20.1562 26.9267 20.3661 27.1366 20.625 27.1366ZM24 31.8136C23.4822 31.8136 23.0625 32.2334 23.0625 32.7512C23.0625 33.2689 23.4822 33.6887 24 33.6887C24.5178 33.6887 24.9375 33.2689 24.9375 32.7512C24.9375 32.2334 24.5178 31.8136 24 31.8136Z" fill="#978A5A"/>
</svg>
