<svg width="64" height="64" viewBox="0 0 64 64" fill="none" xmlns="http://www.w3.org/2000/svg">
<rect width="64" height="64" rx="32" fill="#F7F7F7"/>
<rect x="20" y="20" width="24" height="24" rx="12" fill="#ADC9C4"/>
<path fill-rule="evenodd" clip-rule="evenodd" d="M28.3472 34.2399C29.3951 33.4358 30.679 33 31.9998 33C33.3206 33 34.6045 33.4358 35.6524 34.2399C36.7002 35.0439 37.4535 36.1713 37.7954 37.4471C37.9383 37.9806 37.6217 38.5289 37.0882 38.6718C36.5548 38.8148 36.0064 38.4982 35.8635 37.9647C35.6356 37.1142 35.1334 36.3626 34.4348 35.8266C33.7363 35.2906 32.8803 35 31.9998 35C31.1193 35 30.2633 35.2905 29.5648 35.8266C28.8662 36.3626 28.364 37.1142 28.1361 37.9647C27.9932 38.4982 27.4448 38.8148 26.9114 38.6718C26.3779 38.5289 26.0613 37.9806 26.2042 37.4471C26.5461 36.1713 27.2994 35.0439 28.3472 34.2399Z" fill="black"/>
<path fill-rule="evenodd" clip-rule="evenodd" d="M26 27C26.5523 27 27 27.4477 27 28V31C27 31.5523 26.5523 32 26 32C25.4477 32 25 31.5523 25 31V28C25 27.4477 25.4477 27 26 27Z" fill="black"/>
<path fill-rule="evenodd" clip-rule="evenodd" d="M38 27C38.5523 27 39 27.4477 39 28V31C39 31.5523 38.5523 32 38 32C37.4477 32 37 31.5523 37 31V28C37 27.4477 37.4477 27 38 27Z" fill="black"/>
</svg>
