<svg width="56" height="56" viewBox="0 0 56 56" fill="none" xmlns="http://www.w3.org/2000/svg">
<rect width="56" height="56" rx="24" fill="#ADC9C4"/>
<path d="M19.375 20.5C18.339 20.5 17.5 21.34 17.5 22.375V29.5H29.5V22.375C29.5 21.339 28.66 20.5 27.625 20.5H19.375ZM29.5 31H17.5V33.625C17.5 34.66 18.34 35.5 19.375 35.5H19.75C19.75 34.7044 20.0661 33.9413 20.6287 33.3787C21.1913 32.8161 21.9544 32.5 22.75 32.5C23.5456 32.5 24.3087 32.8161 24.8713 33.3787C25.4339 33.9413 25.75 34.7044 25.75 35.5H28.75C28.9489 35.5 29.1397 35.421 29.2803 35.2803C29.421 35.1397 29.5 34.9489 29.5 34.75V31Z" fill="#1C5353"/>
<path d="M24.25 35.5C24.25 35.1022 24.092 34.7207 23.8107 34.4394C23.5294 34.1581 23.1478 34 22.75 34C22.3522 34 21.9706 34.1581 21.6893 34.4394C21.408 34.7207 21.25 35.1022 21.25 35.5C21.25 35.8978 21.408 36.2794 21.6893 36.5607C21.9706 36.842 22.3522 37 22.75 37C23.1478 37 23.5294 36.842 23.8107 36.5607C24.092 36.2794 24.25 35.8978 24.25 35.5ZM31.75 22.75C31.5511 22.75 31.3603 22.829 31.2197 22.9697C31.079 23.1103 31 23.3011 31 23.5V34.75C31 34.837 31.015 34.92 31.042 34.998C31.1666 34.2592 31.5632 33.5937 32.1538 33.1326C32.7444 32.6714 33.4861 32.4479 34.2331 32.5061C34.9802 32.5643 35.6784 32.8999 36.1904 33.4469C36.7024 33.9939 36.9913 34.7128 37 35.462C37.853 35.287 38.522 34.527 38.464 33.579C38.2403 29.9174 36.9422 26.4029 34.732 23.475C34.5598 23.2486 34.3374 23.0653 34.0823 22.9395C33.8272 22.8137 33.5464 22.7488 33.262 22.75H31.75Z" fill="#1C5353"/>
<path d="M35.5 35.5C35.5 35.1022 35.342 34.7206 35.0607 34.4393C34.7794 34.158 34.3978 34 34 34C33.6022 34 33.2206 34.158 32.9393 34.4393C32.658 34.7206 32.5 35.1022 32.5 35.5C32.5 35.8978 32.658 36.2794 32.9393 36.5607C33.2206 36.842 33.6022 37 34 37C34.3978 37 34.7794 36.842 35.0607 36.5607C35.342 36.2794 35.5 35.8978 35.5 35.5Z" fill="#1C5353"/>
</svg>
