<svg width="64" height="64" viewBox="0 0 64 64" fill="none" xmlns="http://www.w3.org/2000/svg">
<rect width="64" height="64" rx="32" fill="#F7F7F7"/>
<path d="M30 23.9998H22V21.9998H30C31.6569 21.9998 33 23.3429 33 24.9998C33 26.6566 31.6569 27.9998 30 27.9998H25C24.4477 27.9998 24 28.4475 24 28.9998C24 29.552 24.4477 29.9998 25 29.9998H33V31.9998H25C23.3431 31.9998 22 30.6566 22 28.9998C22 27.3429 23.3431 25.9998 25 25.9998H30C30.5523 25.9998 31 25.552 31 24.9998C31 24.4475 30.5523 23.9998 30 23.9998Z" fill="#1C5353"/>
<path d="M39.5 31.9998H34V29.9998H39.5C40.8807 29.9998 42 31.119 42 32.4998C42 33.8805 40.8807 34.9998 39.5 34.9998H36.5C36.2239 34.9998 36 35.2236 36 35.4998C36 35.7759 36.2239 35.9998 36.5 35.9998H42V37.9998H36.5C35.1193 37.9998 34 36.8805 34 35.4998C34 34.119 35.1193 32.9998 36.5 32.9998H39.5C39.7761 32.9998 40 32.7759 40 32.4998C40 32.2236 39.7761 31.9998 39.5 31.9998Z" fill="#1C5353"/>
<path d="M25 34.9995H30.5C30.7761 34.9995 31 35.2234 31 35.4995C31 35.7757 30.7761 35.9995 30.5 35.9995H27.5C26.1193 35.9995 25 37.1188 25 38.4995C25 39.8802 26.1193 40.9995 27.5 40.9995H33V38.9995H27.5C27.2239 38.9995 27 38.7757 27 38.4995C27 38.2234 27.2239 37.9995 27.5 37.9995H30.5C31.8807 37.9995 33 36.8802 33 35.4995C33 34.1188 31.8807 32.9995 30.5 32.9995H25V34.9995Z" fill="#1C5353"/>
</svg>
