<svg width="56" height="56" viewBox="0 0 56 56" fill="none" xmlns="http://www.w3.org/2000/svg">
<rect width="56" height="56" rx="24" fill="#FFF2C0"/>
<path fill-rule="evenodd" clip-rule="evenodd" d="M23.491 21.9921C23.491 21.7932 23.57 21.6024 23.7107 21.4618C23.8513 21.3211 24.0421 21.2421 24.241 21.2421H36.241C36.4399 21.2421 36.6307 21.3211 36.7713 21.4618C36.912 21.6024 36.991 21.7932 36.991 21.9921C36.991 22.191 36.912 22.3818 36.7713 22.5224C36.6307 22.6631 36.4399 22.7421 36.241 22.7421H24.241C24.0421 22.7421 23.8513 22.6631 23.7107 22.5224C23.57 22.3818 23.491 22.191 23.491 21.9921ZM23.49 27.9951C23.49 27.7962 23.569 27.6054 23.7097 27.4648C23.8503 27.3241 24.0411 27.2451 24.24 27.2451H36.24C36.4389 27.2451 36.6297 27.3241 36.7703 27.4648C36.911 27.6054 36.99 27.7962 36.99 27.9951C36.99 28.194 36.911 28.3848 36.7703 28.5254C36.6297 28.6661 36.4389 28.7451 36.24 28.7451H24.24C24.0411 28.7451 23.8503 28.6661 23.7097 28.5254C23.569 28.3848 23.49 28.194 23.49 27.9951ZM23.491 33.9941C23.491 33.7952 23.57 33.6044 23.7107 33.4638C23.8513 33.3231 24.0421 33.2441 24.241 33.2441H36.241C36.4399 33.2441 36.6307 33.3231 36.7713 33.4638C36.912 33.6044 36.991 33.7952 36.991 33.9941C36.991 34.193 36.912 34.3838 36.7713 34.5244C36.6307 34.6651 36.4399 34.7441 36.241 34.7441H24.241C24.0421 34.7441 23.8513 34.6651 23.7107 34.5244C23.57 34.3838 23.491 34.193 23.491 33.9941ZM18.24 19.7451C18.24 19.5462 18.319 19.3554 18.4597 19.2148C18.6003 19.0741 18.7911 18.9951 18.99 18.9951H20.115C20.3139 18.9951 20.5047 19.0741 20.6453 19.2148C20.786 19.3554 20.865 19.5462 20.865 19.7451V22.7451H21.24C21.4389 22.7451 21.6297 22.8241 21.7703 22.9648C21.911 23.1054 21.99 23.2962 21.99 23.4951C21.99 23.694 21.911 23.8848 21.7703 24.0254C21.6297 24.1661 21.4389 24.2451 21.24 24.2451H18.99C18.7911 24.2451 18.6003 24.1661 18.4597 24.0254C18.319 23.8848 18.24 23.694 18.24 23.4951C18.24 23.2962 18.319 23.1054 18.4597 22.9648C18.6003 22.8241 18.7911 22.7451 18.99 22.7451H19.365V20.4951H18.99C18.7911 20.4951 18.6003 20.4161 18.4597 20.2754C18.319 20.1348 18.24 19.944 18.24 19.7451ZM18.79 26.6021C18.6496 26.4615 18.5707 26.2709 18.5707 26.0721C18.5707 25.8734 18.6496 25.6827 18.79 25.5421C18.9634 25.3649 19.1702 25.2239 19.3984 25.1271C19.6267 25.0304 19.8719 24.9799 20.1198 24.9785C20.3677 24.9772 20.6134 25.025 20.8427 25.1192C21.072 25.2134 21.2804 25.3522 21.4557 25.5274C21.631 25.7027 21.7699 25.911 21.8642 26.1403C21.9585 26.3695 22.0064 26.6152 22.0051 26.8631C22.0038 27.111 21.9534 27.3562 21.8567 27.5845C21.7601 27.8128 21.6191 28.0197 21.442 28.1931L20.892 28.7431H21.242C21.4409 28.7431 21.6317 28.8221 21.7723 28.9628C21.913 29.1034 21.992 29.2942 21.992 29.4931C21.992 29.692 21.913 29.8828 21.7723 30.0234C21.6317 30.1641 21.4409 30.2431 21.242 30.2431H19.082C18.9336 30.2432 18.7884 30.1992 18.665 30.1167C18.5416 30.0343 18.4454 29.917 18.3886 29.7798C18.3319 29.6427 18.3171 29.4918 18.3462 29.3462C18.3753 29.2006 18.4469 29.067 18.552 28.9621L20.382 27.1321C20.4482 27.061 20.4843 26.967 20.4826 26.8699C20.4809 26.7727 20.4415 26.68 20.3728 26.6113C20.3041 26.5426 20.2114 26.5032 20.1143 26.5015C20.0171 26.4998 19.9231 26.5359 19.852 26.6021C19.7823 26.672 19.6996 26.7274 19.6085 26.7652C19.5173 26.803 19.4197 26.8225 19.321 26.8225C19.2224 26.8225 19.1247 26.803 19.0336 26.7652C18.9424 26.7274 18.8597 26.672 18.79 26.6021ZM18.24 31.7451C18.24 31.5462 18.319 31.3554 18.4597 31.2148C18.6003 31.0741 18.7911 30.9951 18.99 30.9951H20.115C20.4631 30.9951 20.8044 31.0919 21.1006 31.2749C21.3968 31.4578 21.6362 31.7196 21.792 32.0309C21.9478 32.3422 22.0138 32.6908 21.9828 33.0375C21.9517 33.3842 21.8247 33.7155 21.616 33.9941C21.825 34.2728 21.9522 34.6041 21.9834 34.951C22.0147 35.2979 21.9487 35.6466 21.7928 35.9581C21.637 36.2696 21.3975 36.5315 21.1011 36.7145C20.8048 36.8975 20.4633 36.9943 20.115 36.9941H18.99C18.791 36.9941 18.6001 36.915 18.4593 36.7743C18.3186 36.6336 18.2395 36.4427 18.2395 36.2436C18.2395 36.0446 18.3186 35.8537 18.4593 35.7129C18.6001 35.5722 18.791 35.4931 18.99 35.4931H20.115C20.2109 35.4925 20.3029 35.4551 20.3721 35.3887C20.4412 35.3223 20.4824 35.2319 20.487 35.1362C20.4916 35.0404 20.4593 34.9465 20.3968 34.8737C20.3344 34.801 20.2464 34.755 20.151 34.7451H19.74C19.5411 34.7451 19.3503 34.6661 19.2097 34.5254C19.069 34.3848 18.99 34.194 18.99 33.9951V33.9931C18.99 33.7942 19.069 33.6034 19.2097 33.4628C19.3503 33.3221 19.5411 33.2431 19.74 33.2431H20.151C20.2464 33.2332 20.3344 33.1872 20.3968 33.1145C20.4593 33.0418 20.4916 32.9479 20.487 32.8521C20.4824 32.7563 20.4412 32.6659 20.3721 32.5995C20.3029 32.5331 20.2109 32.4958 20.115 32.4951H18.99C18.7911 32.4951 18.6003 32.4161 18.4597 32.2754C18.319 32.1348 18.24 31.944 18.24 31.7451Z" fill="#978A5A"/>
</svg>
