<svg width="56" height="56" viewBox="0 0 56 56" fill="none" xmlns="http://www.w3.org/2000/svg">
<rect width="56" height="56" rx="24" fill="#FFE8E8"/>
<path fill-rule="evenodd" clip-rule="evenodd" d="M23.5001 22C23.5001 20.8065 23.9742 19.6619 24.8181 18.818C25.662 17.9741 26.8066 17.5 28.0001 17.5C29.1936 17.5 30.3382 17.9741 31.1821 18.818C32.026 19.6619 32.5001 20.8065 32.5001 22C32.5001 23.1935 32.026 24.3381 31.1821 25.182C30.3382 26.0259 29.1936 26.5 28.0001 26.5C26.8066 26.5 25.662 26.0259 24.8181 25.182C23.9742 24.3381 23.5001 23.1935 23.5001 22ZM19.7511 36.105C19.7848 33.9395 20.6687 31.8741 22.2121 30.3546C23.7554 28.8351 25.8343 27.9834 28.0001 27.9834C30.1659 27.9834 32.2448 28.8351 33.7881 30.3546C35.3315 31.8741 36.2154 33.9395 36.2491 36.105C36.2517 36.2508 36.2117 36.3942 36.1341 36.5176C36.0565 36.641 35.9446 36.7392 35.8121 36.8C33.3613 37.9237 30.6963 38.5037 28.0001 38.5C25.2141 38.5 22.5671 37.892 20.1881 36.8C20.0556 36.7392 19.9437 36.641 19.8661 36.5176C19.7884 36.3942 19.7485 36.2508 19.7511 36.105Z" fill="#C79A9A"/>
</svg>
