<svg width="56" height="56" viewBox="0 0 56 56" fill="none" xmlns="http://www.w3.org/2000/svg">
<rect width="56" height="56" rx="24" fill="#F1EDE7"/>
<path fill-rule="evenodd" clip-rule="evenodd" d="M23.502 22H30.63C31.5242 22.0013 32.3814 22.3575 33.0132 22.9903C33.6451 23.6231 34 24.4808 34 25.375V34.75C34.7956 34.75 35.5587 34.4339 36.1213 33.8713C36.6839 33.3087 37 32.5456 37 31.75V22.108C37 20.603 35.875 19.297 34.336 19.168C34.1117 19.1498 33.8874 19.1331 33.663 19.118C33.4098 18.6303 33.0276 18.2215 32.558 17.9361C32.0884 17.6508 31.5494 17.4999 31 17.5H29.5C28.9505 17.4999 28.4115 17.6508 27.9419 17.9361C27.4723 18.2215 27.0901 18.6303 26.837 19.118C26.612 19.133 26.387 19.15 26.164 19.168C24.662 19.295 23.554 20.542 23.502 22ZM29.5 19C29.1021 19 28.7206 19.158 28.4393 19.4393C28.158 19.7206 28 20.1022 28 20.5H32.5C32.5 20.1022 32.3419 19.7206 32.0606 19.4393C31.7793 19.158 31.3978 19 31 19H29.5Z" fill="#9B7E60"/>
<path fill-rule="evenodd" clip-rule="evenodd" d="M19 25.375C19 24.339 19.84 23.5 20.875 23.5H30.625C31.661 23.5 32.5 24.34 32.5 25.375V36.625C32.5 37.66 31.66 38.5 30.625 38.5H20.875C20.3777 38.5 19.9008 38.3025 19.5492 37.9508C19.1975 37.5992 19 37.1223 19 36.625V25.375ZM22 28C22 27.8011 22.079 27.6103 22.2197 27.4697C22.3603 27.329 22.5511 27.25 22.75 27.25H22.758C22.9569 27.25 23.1477 27.329 23.2883 27.4697C23.429 27.6103 23.508 27.8011 23.508 28V28.008C23.508 28.2069 23.429 28.3977 23.2883 28.5383C23.1477 28.679 22.9569 28.758 22.758 28.758H22.75C22.5511 28.758 22.3603 28.679 22.2197 28.5383C22.079 28.3977 22 28.2069 22 28.008V28ZM24.25 28C24.25 27.8011 24.329 27.6103 24.4697 27.4697C24.6103 27.329 24.8011 27.25 25 27.25H28.75C28.9489 27.25 29.1397 27.329 29.2803 27.4697C29.421 27.6103 29.5 27.8011 29.5 28C29.5 28.1989 29.421 28.3897 29.2803 28.5303C29.1397 28.671 28.9489 28.75 28.75 28.75H25C24.8011 28.75 24.6103 28.671 24.4697 28.5303C24.329 28.3897 24.25 28.1989 24.25 28ZM22 31C22 30.8011 22.079 30.6103 22.2197 30.4697C22.3603 30.329 22.5511 30.25 22.75 30.25H22.758C22.9569 30.25 23.1477 30.329 23.2883 30.4697C23.429 30.6103 23.508 30.8011 23.508 31V31.008C23.508 31.2069 23.429 31.3977 23.2883 31.5383C23.1477 31.679 22.9569 31.758 22.758 31.758H22.75C22.5511 31.758 22.3603 31.679 22.2197 31.5383C22.079 31.3977 22 31.2069 22 31.008V31ZM24.25 31C24.25 30.8011 24.329 30.6103 24.4697 30.4697C24.6103 30.329 24.8011 30.25 25 30.25H28.75C28.9489 30.25 29.1397 30.329 29.2803 30.4697C29.421 30.6103 29.5 30.8011 29.5 31C29.5 31.1989 29.421 31.3897 29.2803 31.5303C29.1397 31.671 28.9489 31.75 28.75 31.75H25C24.8011 31.75 24.6103 31.671 24.4697 31.5303C24.329 31.3897 24.25 31.1989 24.25 31ZM22 34C22 33.8011 22.079 33.6103 22.2197 33.4697C22.3603 33.329 22.5511 33.25 22.75 33.25H22.758C22.9569 33.25 23.1477 33.329 23.2883 33.4697C23.429 33.6103 23.508 33.8011 23.508 34V34.008C23.508 34.2069 23.429 34.3977 23.2883 34.5383C23.1477 34.679 22.9569 34.758 22.758 34.758H22.75C22.5511 34.758 22.3603 34.679 22.2197 34.5383C22.079 34.3977 22 34.2069 22 34.008V34ZM24.25 34C24.25 33.8011 24.329 33.6103 24.4697 33.4697C24.6103 33.329 24.8011 33.25 25 33.25H28.75C28.9489 33.25 29.1397 33.329 29.2803 33.4697C29.421 33.6103 29.5 33.8011 29.5 34C29.5 34.1989 29.421 34.3897 29.2803 34.5303C29.1397 34.671 28.9489 34.75 28.75 34.75H25C24.8011 34.75 24.6103 34.671 24.4697 34.5303C24.329 34.3897 24.25 34.1989 24.25 34Z" fill="#9B7E60"/>
</svg>
