<svg width="64" height="64" viewBox="0 0 64 64" fill="none" xmlns="http://www.w3.org/2000/svg">
<rect width="64" height="64" rx="32" fill="#F7F7F7"/>
<path fill-rule="evenodd" clip-rule="evenodd" d="M34.2609 22.0849C33.9604 22.0288 33.6532 22 33.3431 22H29C26.2386 22 24 24.2386 24 27V37C24 39.7614 26.2386 42 29 42H35C37.7614 42 40 39.7614 40 37V28.6569C40 28.3468 39.9712 28.0396 39.9151 27.7391C39.8867 27.7693 39.8578 27.7991 39.8284 27.8284C39.3319 28.3249 38.7135 28.682 38.0353 28.8637C37.3571 29.0454 36.6429 29.0454 35.9647 28.8637C35.2865 28.682 34.6681 28.3249 34.1716 27.8284C33.6751 27.3319 33.318 26.7135 33.1363 26.0353C32.9546 25.3571 32.9546 24.6429 33.1363 23.9647C33.318 23.2865 33.6751 22.6681 34.1716 22.1716C34.2009 22.1422 34.2307 22.1133 34.2609 22.0849ZM31 33.9995H29V31.9995H31V29.9995H33V31.9995H35V33.9995H33V35.9995H31V33.9995Z" fill="#1C5353"/>
<path d="M38.9215 25.5549C38.8019 25.4038 38.6732 25.2589 38.5355 25.1213L36.8787 23.4645C36.7411 23.3268 36.5962 23.1981 36.4451 23.0785C36.1206 23.1722 35.8249 23.3467 35.5858 23.5858C35.3375 23.834 35.159 24.1433 35.0681 24.4824C34.9773 24.8215 34.9773 25.1785 35.0681 25.5176C35.159 25.8567 35.3375 26.166 35.5858 26.4142C35.834 26.6625 36.1433 26.841 36.4824 26.9319C36.8215 27.0227 37.1785 27.0227 37.5176 26.9319C37.8567 26.841 38.166 26.6625 38.4142 26.4142C38.6533 26.1751 38.8278 25.8794 38.9215 25.5549Z" fill="#1C5353"/>
</svg>
