<svg width="48" height="48" viewBox="0 0 48 48" fill="none" xmlns="http://www.w3.org/2000/svg">
<rect width="48" height="48" rx="16" fill="#ADC9C4"/>
<g clip-path="url(#clip0_510_2644)">
<path fill-rule="evenodd" clip-rule="evenodd" d="M24.01 12.7369C23.9844 12.7375 23.9589 12.7393 23.9335 12.7425C23.7478 12.7637 23.5768 12.8532 23.4536 12.9936C23.3304 13.1341 23.264 13.3154 23.2673 13.5022V15.0045C23.2673 15.1031 23.2868 15.2008 23.3245 15.2919C23.3623 15.3831 23.4176 15.4659 23.4873 15.5356C23.5571 15.6054 23.6399 15.6607 23.731 15.6985C23.8222 15.7362 23.9198 15.7556 24.0185 15.7556C24.1171 15.7556 24.2148 15.7362 24.3059 15.6985C24.3971 15.6607 24.4799 15.6054 24.5496 15.5356C24.6194 15.4659 24.6747 15.3831 24.7125 15.2919C24.7502 15.2008 24.7696 15.1031 24.7696 15.0045V13.5022C24.7715 13.4016 24.7532 13.3017 24.7158 13.2084C24.6784 13.1151 24.6226 13.0302 24.5517 12.9588C24.4809 12.8874 24.3964 12.831 24.3034 12.7929C24.2103 12.7548 24.1105 12.7357 24.01 12.7369ZM16.575 15.8208C16.5485 15.8213 16.522 15.8232 16.4956 15.8265C16.3542 15.8422 16.2201 15.8976 16.109 15.9865C15.9979 16.0754 15.9143 16.194 15.868 16.3285C15.8217 16.4631 15.8145 16.608 15.8473 16.7464C15.8802 16.8849 15.9516 17.0111 16.0535 17.1106L17.1136 18.1763C17.1819 18.2532 17.2652 18.3153 17.3584 18.3587C17.4516 18.4022 17.5527 18.4262 17.6555 18.4291C17.7583 18.4321 17.8606 18.414 17.9561 18.3759C18.0516 18.3379 18.1384 18.2807 18.211 18.2079C18.2836 18.1351 18.3406 18.0482 18.3784 17.9526C18.4162 17.8569 18.434 17.7546 18.4308 17.6518C18.4275 17.549 18.4033 17.448 18.3596 17.3549C18.3159 17.2618 18.2536 17.1787 18.1765 17.1106L17.1136 16.0533C17.044 15.9804 16.9604 15.9222 16.8679 15.8823C16.7754 15.8424 16.6758 15.8215 16.575 15.8208ZM31.4393 15.8265C31.2454 15.833 31.0616 15.9143 30.9263 16.0533L29.8605 17.1134C29.7836 17.1817 29.7215 17.265 29.6781 17.3582C29.6346 17.4514 29.6106 17.5525 29.6077 17.6553C29.6047 17.7581 29.6228 17.8604 29.6609 17.9559C29.6989 18.0515 29.7561 18.1382 29.8289 18.2108C29.9017 18.2834 29.9886 18.3404 30.0843 18.3782C30.1799 18.416 30.2822 18.4338 30.385 18.4306C30.4878 18.4273 30.5888 18.4031 30.6819 18.3594C30.775 18.3157 30.8581 18.2534 30.9263 18.1763L31.9835 17.1134C32.091 17.0078 32.1643 16.8724 32.1938 16.7246C32.2233 16.5769 32.2077 16.4236 32.1491 16.2849C32.0904 16.1461 31.9913 16.0282 31.8647 15.9464C31.7382 15.8647 31.5899 15.8229 31.4393 15.8265ZM24.0185 17.2579C22.2265 17.2609 20.5087 17.9742 19.2415 19.2413C17.9743 20.5085 17.2611 22.2263 17.2581 24.0183C17.2581 26.3426 18.4685 28.3665 20.2627 29.5797V31.5298C20.2627 31.9437 20.6 32.281 21.0139 32.281H27.0231C27.2223 32.281 27.4134 32.2018 27.5542 32.061C27.6951 31.9201 27.7743 31.729 27.7743 31.5298V29.5797C28.6929 28.9704 29.4475 28.1443 29.9715 27.1745C30.4955 26.2046 30.7728 25.1207 30.7789 24.0183C30.7759 22.2263 30.0626 20.5085 28.7955 19.2413C27.5283 17.9742 25.8105 17.2609 24.0185 17.2579ZM24.0157 20.2626C24.2149 20.2626 24.4059 20.3417 24.5468 20.4826C24.6877 20.6234 24.7668 20.8145 24.7668 21.0137C24.7668 21.2129 24.6877 21.404 24.5468 21.5448C24.4059 21.6857 24.2149 21.7649 24.0157 21.7649C23.7193 21.7637 23.4257 21.8214 23.1517 21.9344C22.8778 22.0475 22.629 22.2137 22.4197 22.4235C22.2104 22.6334 22.0448 22.8826 21.9324 23.1568C21.8201 23.431 21.7632 23.7248 21.765 24.0211C21.765 24.2204 21.6859 24.4114 21.545 24.5523C21.4042 24.6932 21.2131 24.7723 21.0139 24.7723C20.8147 24.7723 20.6236 24.6932 20.4827 24.5523C20.3419 24.4114 20.2627 24.2204 20.2627 24.0211C20.265 23.0257 20.6608 22.0716 21.3639 21.3669C22.067 20.6622 23.0202 20.267 24.0157 20.2626ZM13.5024 23.2643C13.3032 23.2643 13.1121 23.3435 12.9712 23.4843C12.8304 23.6252 12.7512 23.8163 12.7512 24.0155C12.7512 24.2147 12.8304 24.4058 12.9712 24.5466C13.1121 24.6875 13.3032 24.7666 13.5024 24.7666H15.0047C15.2039 24.7666 15.395 24.6875 15.5358 24.5466C15.6767 24.4058 15.7558 24.2147 15.7558 24.0155C15.7558 23.8163 15.6767 23.6252 15.5358 23.4843C15.395 23.3435 15.2039 23.2643 15.0047 23.2643H13.5024ZM33.0323 23.2643C32.8331 23.2643 32.642 23.3435 32.5012 23.4843C32.3603 23.6252 32.2812 23.8163 32.2812 24.0155C32.2812 24.2147 32.3603 24.4058 32.5012 24.5466C32.642 24.6875 32.8331 24.7666 33.0323 24.7666H34.5346C34.7338 24.7666 34.9249 24.6875 35.0658 24.5466C35.2066 24.4058 35.2858 24.2147 35.2858 24.0155C35.2858 23.8163 35.2066 23.6252 35.0658 23.4843C34.9249 23.3435 34.7338 23.2643 34.5346 23.2643H33.0323ZM17.6408 29.6307C17.6361 29.6306 17.6313 29.6306 17.6266 29.6307C17.4323 29.6379 17.2484 29.7202 17.1136 29.8603L16.0535 30.9232C15.9763 30.9911 15.914 31.074 15.8702 31.1668C15.8264 31.2597 15.8021 31.3606 15.7988 31.4632C15.7955 31.5659 15.8133 31.6681 15.8511 31.7636C15.8888 31.8591 15.9458 31.9458 16.0184 32.0184C16.091 32.091 16.1777 32.148 16.2732 32.1857C16.3687 32.2235 16.4709 32.2413 16.5736 32.238C16.6762 32.2347 16.7771 32.2104 16.87 32.1666C16.9628 32.1228 17.0457 32.0605 17.1136 31.9834L18.1765 30.9232C18.2857 30.8183 18.3606 30.6829 18.3914 30.5347C18.4223 30.3865 18.4076 30.2325 18.3494 30.0927C18.2912 29.953 18.1921 29.8341 18.0652 29.7517C17.9382 29.6692 17.7893 29.627 17.638 29.6307H17.6408ZM30.3877 29.6307C30.2373 29.6294 30.09 29.6732 29.9648 29.7566C29.8397 29.8399 29.7424 29.9589 29.6856 30.0981C29.6288 30.2373 29.6151 30.3904 29.6463 30.5375C29.6775 30.6846 29.7521 30.819 29.8605 30.9232L30.9263 31.9834C30.9935 32.0625 31.0764 32.1268 31.1698 32.1722C31.2632 32.2177 31.3649 32.2433 31.4687 32.2474C31.5725 32.2515 31.676 32.2341 31.7726 32.1962C31.8693 32.1583 31.9571 32.1008 32.0304 32.0273C32.1038 31.9538 32.161 31.8658 32.1987 31.7691C32.2363 31.6723 32.2535 31.5687 32.2491 31.465C32.2446 31.3612 32.2188 31.2595 32.1731 31.1663C32.1274 31.073 32.0628 30.9903 31.9835 30.9232L30.9263 29.8603C30.8562 29.7884 30.7724 29.7313 30.6799 29.6924C30.5874 29.6534 30.4881 29.6334 30.3877 29.6335V29.6307ZM22.4453 33.7889C22.4444 33.7889 22.4463 33.7889 22.4453 33.7889C22.3467 33.794 22.2472 33.8184 22.158 33.8608C22.0687 33.9032 21.9888 33.9627 21.9226 34.036C21.8564 34.1093 21.8052 34.1949 21.7721 34.288C21.739 34.3811 21.7246 34.4797 21.7296 34.5784C21.7346 34.677 21.759 34.7737 21.8014 34.8629C21.8438 34.9521 21.9034 35.0321 21.9767 35.0983C22.05 35.1645 22.1356 35.2156 22.2287 35.2487C22.3217 35.2818 22.4204 35.2963 22.519 35.2913H25.518C25.7172 35.2913 25.9082 35.2121 26.0491 35.0712C26.19 34.9304 26.2691 34.7393 26.2691 34.5401C26.2691 34.3409 26.19 34.1498 26.0491 34.009C25.9082 33.8681 25.7172 33.7889 25.518 33.7889H22.519C22.4945 33.7877 22.4699 33.7877 22.4453 33.7889Z" fill="#1C5353"/>
</g>
<defs>
<clipPath id="clip0_510_2644">
<rect width="24" height="24" fill="white" transform="translate(12 12)"/>
</clipPath>
</defs>
</svg>
