<svg width="48" height="48" viewBox="0 0 48 48" fill="none" xmlns="http://www.w3.org/2000/svg">
<rect width="48" height="48" rx="16" fill="#ADC9C4"/>
<path d="M24.0099 14.0112C24.7877 14.0113 25.5389 14.2946 26.1229 14.8082L26.2769 14.9532L26.9749 15.6512C27.1665 15.8415 27.4166 15.9617 27.6849 15.9922L27.8199 16.0002H28.8199C29.6371 16.0002 30.4234 16.3128 31.0175 16.874C31.6116 17.4351 31.9684 18.2023 32.0149 19.0182L32.0199 19.2002V20.2002C32.0199 20.4702 32.1119 20.7332 32.2779 20.9432L32.3679 21.0432L33.0649 21.7412C33.6426 22.3157 33.9795 23.0889 34.0068 23.9031C34.0341 24.7173 33.7498 25.5114 33.2119 26.1232L33.0669 26.2772L32.3689 26.9752C32.1786 27.1668 32.0585 27.4169 32.0279 27.6852L32.0199 27.8202V28.8202C32.02 29.6374 31.7074 30.4237 31.1462 31.0178C30.585 31.6119 29.8178 31.9688 29.0019 32.0152L28.8199 32.0202H27.8199C27.5503 32.0203 27.2886 32.1112 27.0769 32.2782L26.9769 32.3682L26.2789 33.0652C25.7045 33.643 24.9313 33.9798 24.1171 34.0071C23.3028 34.0344 22.5088 33.7502 21.8969 33.2122L21.7429 33.0672L21.0449 32.3692C20.8534 32.1789 20.6032 32.0588 20.3349 32.0282L20.1999 32.0202H19.1999C18.3827 32.0203 17.5964 31.7077 17.0024 31.1465C16.4083 30.5853 16.0514 29.8181 16.0049 29.0022L15.9999 28.8202V27.8202C15.9998 27.5506 15.909 27.2889 15.7419 27.0772L15.6519 26.9772L14.9549 26.2792C14.3772 25.7048 14.0403 24.9316 14.013 24.1174C13.9857 23.3031 14.27 22.5091 14.8079 21.8972L14.9529 21.7432L15.6509 21.0452C15.8412 20.8537 15.9614 20.6035 15.9919 20.3352L15.9999 20.2002V19.2002L16.0049 19.0182C16.0496 18.2337 16.3813 17.493 16.937 16.9373C17.4927 16.3817 18.2334 16.0499 19.0179 16.0052L19.1999 16.0002H20.1999C20.4695 16.0001 20.7313 15.9093 20.9429 15.7422L21.0429 15.6522L21.7409 14.9552C22.0383 14.6561 22.3918 14.4187 22.7812 14.2567C23.1706 14.0947 23.5882 14.0113 24.0099 14.0112ZM27.7069 21.2932C27.5194 21.1058 27.2651 21.0004 26.9999 21.0004C26.7348 21.0004 26.4805 21.1058 26.2929 21.2932L22.9999 24.5852L21.7069 23.2932L21.6129 23.2102C21.4119 23.0548 21.1593 22.9817 20.9064 23.0058C20.6535 23.0299 20.4192 23.1494 20.2512 23.34C20.0831 23.5305 19.9939 23.7779 20.0017 24.0318C20.0094 24.2858 20.1136 24.5273 20.2929 24.7072L22.2929 26.7072L22.3869 26.7902C22.5793 26.9395 22.8196 27.0134 23.0626 26.9981C23.3056 26.9828 23.5347 26.8794 23.7069 26.7072L27.7069 22.7072L27.7899 22.6132C27.9392 22.4208 28.0131 22.1806 27.9978 21.9375C27.9825 21.6945 27.8791 21.4654 27.7069 21.2932Z" fill="#1C5353"/>
</svg>
