<svg width="48" height="48" viewBox="0 0 48 48" fill="none" xmlns="http://www.w3.org/2000/svg">
<rect width="48" height="48" rx="16" fill="#FFF2C0"/>
<path fill-rule="evenodd" clip-rule="evenodd" d="M20.25 18.75C20.25 17.7554 20.6451 16.8016 21.3483 16.0983C22.0516 15.3951 23.0054 15 24 15C24.9946 15 25.9484 15.3951 26.6517 16.0983C27.3549 16.8016 27.75 17.7554 27.75 18.75C27.75 19.7446 27.3549 20.6984 26.6517 21.4017C25.9484 22.1049 24.9946 22.5 24 22.5C23.0054 22.5 22.0516 22.1049 21.3483 21.4017C20.6451 20.6984 20.25 19.7446 20.25 18.75ZM27.75 21.75C27.75 20.9544 28.0661 20.1913 28.6287 19.6287C29.1913 19.0661 29.9544 18.75 30.75 18.75C31.5456 18.75 32.3087 19.0661 32.8713 19.6287C33.4339 20.1913 33.75 20.9544 33.75 21.75C33.75 22.5456 33.4339 23.3087 32.8713 23.8713C32.3087 24.4339 31.5456 24.75 30.75 24.75C29.9544 24.75 29.1913 24.4339 28.6287 23.8713C28.0661 23.3087 27.75 22.5456 27.75 21.75ZM14.25 21.75C14.25 20.9544 14.5661 20.1913 15.1287 19.6287C15.6913 19.0661 16.4544 18.75 17.25 18.75C18.0456 18.75 18.8087 19.0661 19.3713 19.6287C19.9339 20.1913 20.25 20.9544 20.25 21.75C20.25 22.5456 19.9339 23.3087 19.3713 23.8713C18.8087 24.4339 18.0456 24.75 17.25 24.75C16.4544 24.75 15.6913 24.4339 15.1287 23.8713C14.5661 23.3087 14.25 22.5456 14.25 21.75ZM18.31 27.117C18.92 26.161 19.7611 25.3743 20.7556 24.8294C21.7502 24.2846 22.866 23.9994 24 24C24.9498 23.9991 25.8891 24.1989 26.7564 24.5862C27.6237 24.9734 28.3994 25.5395 29.0327 26.2474C29.6661 26.9552 30.1428 27.7888 30.4317 28.6936C30.7205 29.5985 30.815 30.5541 30.709 31.498C30.696 31.6153 30.6556 31.7278 30.591 31.8265C30.5263 31.9252 30.4393 32.0073 30.337 32.066C28.4086 33.1725 26.2233 33.7532 24 33.75C21.695 33.75 19.53 33.138 17.663 32.066C17.5607 32.0073 17.4737 31.9252 17.409 31.8265C17.3444 31.7278 17.304 31.6153 17.291 31.498C17.1231 29.9646 17.4825 28.4198 18.31 27.118V27.117Z" fill="#978A5A"/>
<path d="M17.0821 26.2539C16.0958 27.7763 15.6363 29.5802 15.7741 31.3889C15.1736 31.2979 14.583 31.1505 14.0101 30.9489L13.8951 30.9089C13.7925 30.8725 13.7026 30.8071 13.6364 30.7207C13.5702 30.6342 13.5305 30.5305 13.5221 30.4219L13.5121 30.3009C13.4717 29.7989 13.5328 29.2938 13.6919 28.816C13.8509 28.3381 14.1046 27.8971 14.4378 27.5194C14.771 27.1417 15.1768 26.835 15.6312 26.6176C16.0855 26.4001 16.5789 26.2765 17.0821 26.2539ZM32.2261 31.3889C32.3638 29.5802 31.9043 27.7763 30.9181 26.2539C31.4212 26.2765 31.9147 26.4001 32.369 26.6176C32.8233 26.835 33.2292 27.1417 33.5624 27.5194C33.8955 27.8971 34.1492 28.3381 34.3083 28.816C34.4673 29.2938 34.5285 29.7989 34.4881 30.3009L34.4781 30.4219C34.4695 30.5303 34.4297 30.6338 34.3635 30.7201C34.2973 30.8063 34.2075 30.8716 34.1051 30.9079L33.9901 30.9479C33.4231 31.1479 32.8341 31.2969 32.2261 31.3889Z" fill="#978A5A"/>
</svg>
