<svg width="1264" height="359" viewBox="0 0 1264 359" fill="none" xmlns="http://www.w3.org/2000/svg">
<path d="M1219.99 369.993C1207.09 369.993 1196.45 366.612 1188.07 359.851C1179.68 352.768 1175.49 342.787 1175.49 329.908C1175.49 317.029 1179.68 307.209 1188.07 300.447C1196.45 293.364 1207.09 289.822 1219.99 289.822C1232.56 289.822 1243.04 293.364 1251.42 300.447C1259.81 307.209 1264 317.029 1264 329.908C1264 342.787 1259.81 352.768 1251.42 359.851C1243.04 366.612 1232.56 369.993 1219.99 369.993Z" fill="white"/>
<path d="M1057.23 369.517C1026.92 369.517 1002.09 364.043 982.747 353.096C963.401 342.149 953.728 328.949 953.728 313.494C953.728 304.801 956.307 298.2 961.466 293.693C966.948 289.185 974.041 286.931 982.747 286.931C992.098 286.931 999.675 290.312 1005.48 297.073C1011.28 303.513 1015.31 310.757 1017.57 318.806C1020.15 326.856 1024.66 334.261 1031.11 341.022C1037.88 347.462 1046.59 350.682 1057.23 350.682C1067.55 350.682 1075.93 347.945 1082.38 342.471C1089.15 336.998 1092.54 329.11 1092.54 318.806C1092.54 307.215 1087.86 298.039 1078.51 291.278C1069.48 284.517 1058.36 279.526 1045.14 276.306C1031.92 272.765 1018.7 268.901 1005.48 264.715C992.259 260.208 980.974 252.641 971.623 242.016C962.595 231.069 958.081 216.903 958.081 199.516C958.081 178.91 967.109 162.006 985.166 148.806C1003.54 135.283 1027.24 128.521 1056.26 128.521C1085.6 128.521 1109.46 134.317 1127.84 145.908C1146.54 157.177 1155.9 170.7 1155.9 186.476C1155.9 193.56 1153.15 199.516 1147.67 204.346C1142.51 209.175 1136.07 211.59 1128.33 211.59C1119.3 211.59 1112.04 208.37 1106.56 201.931C1101.08 195.17 1097.21 187.925 1094.95 180.198C1092.7 172.149 1088.67 164.904 1082.86 158.465C1077.06 151.703 1069.48 148.323 1060.13 148.323C1050.78 148.323 1043.2 151.542 1037.4 157.982C1031.6 164.099 1028.69 171.666 1028.69 180.681C1028.69 189.696 1031.11 197.262 1035.95 203.38C1040.79 209.497 1047.07 214.166 1054.81 217.386C1062.55 220.605 1071.09 223.664 1080.45 226.562C1089.8 229.137 1099.15 232.196 1108.5 235.738C1118.17 238.958 1126.88 242.982 1134.61 247.812C1142.35 252.641 1148.64 259.564 1153.48 268.579C1158.31 277.272 1160.73 287.897 1160.73 300.454C1160.73 320.416 1151.38 336.998 1132.68 350.199C1113.98 363.078 1088.83 369.517 1057.23 369.517Z" fill="white"/>
<path d="M819.714 370C781.345 370 749.585 358.248 724.435 334.744C699.607 310.918 687.193 281.941 687.193 247.812C687.193 213.361 699.446 184.866 723.951 162.328C748.456 139.79 777.959 128.521 812.46 128.521C849.54 128.521 880.494 140.273 905.321 163.777C930.149 186.959 942.562 215.776 942.562 250.227C942.562 284.678 930.794 313.333 907.256 336.193C884.04 358.731 854.86 370 819.714 370ZM828.42 348.75C841.64 348.75 851.797 342.632 858.89 330.397C866.306 318.163 870.014 300.937 870.014 278.721C870.014 260.369 867.274 241.533 861.792 222.215C856.633 202.575 848.734 185.671 838.093 171.505C827.453 157.016 815.684 149.772 802.787 149.772C773.122 149.772 758.29 173.275 758.29 220.283C758.29 237.67 760.87 256.022 766.029 275.34C771.51 294.659 779.732 311.723 790.695 326.534C801.981 341.344 814.556 348.75 828.42 348.75Z" fill="white"/>
<path d="M648.079 128.528C661.944 128.528 672.746 132.714 680.484 141.085C688.545 149.134 692.575 159.598 692.575 172.477C692.575 197.913 682.258 210.631 661.622 210.631C653.238 210.631 646.628 208.538 641.792 204.352C637.278 199.845 634.537 195.015 633.57 189.864C632.602 184.712 630.668 180.043 627.766 175.858C624.864 171.35 620.511 169.096 614.707 169.096C606.001 169.096 599.553 174.248 595.361 184.551C591.169 194.854 589.074 207.411 589.074 222.222V318.813C589.074 324.609 591.008 329.76 594.877 334.268C599.069 338.453 603.1 342.156 606.969 345.376C611.16 348.595 613.256 351.815 613.256 355.035V356.967C613.256 362.44 609.709 365.177 602.616 365.177H513.14C505.724 365.177 502.016 362.44 502.016 356.967V355.035C502.016 351.815 505.079 346.825 511.205 340.063C517.654 333.302 520.878 326.218 520.878 318.813V205.801C520.878 198.074 517.17 191.152 509.754 185.034C502.338 178.917 498.63 174.248 498.63 171.028V169.096C498.63 164.589 502.016 160.725 508.787 157.506L566.826 130.46C577.143 125.63 582.302 128.85 582.302 140.119V176.341C593.265 144.466 615.191 128.528 648.079 128.528Z" fill="white"/>
<path d="M473.858 291.761C476.76 287.897 480.307 286.609 484.498 287.897C488.69 289.185 490.624 292.244 490.302 297.073C488.69 313.816 479.017 330.236 461.283 346.335C443.549 362.112 420.495 370 392.12 370C357.942 370 329.89 358.731 307.965 336.193C286.039 313.655 275.076 284.034 275.076 247.329C275.076 212.878 286.523 184.544 309.416 162.328C332.309 139.79 359.877 128.521 392.12 128.521C421.462 128.521 444.033 135.444 459.832 149.289C475.631 163.133 483.531 179.071 483.531 197.101C483.531 211.912 476.437 222.537 462.25 228.977L354.879 277.755C368.099 305.767 389.38 319.772 418.721 319.772C430.974 319.772 441.937 317.197 451.61 312.045C461.605 306.572 469.021 299.81 473.858 291.761ZM383.415 149.772C370.84 149.772 360.844 155.889 353.428 168.124C346.012 180.037 342.304 195.33 342.304 214.005C342.304 229.781 343.916 243.626 347.141 255.539L409.532 224.147C417.915 219.961 422.107 212.395 422.107 201.448C422.107 190.501 418.56 179.232 411.467 167.641C404.373 155.728 395.022 149.772 383.415 149.772Z" fill="white"/>
<path d="M251.5 317.826C252.145 325.553 255.208 332.798 260.689 339.559C266.171 346.32 268.911 351.472 268.911 355.014V356.945C268.911 362.419 265.365 365.156 258.271 365.156H174.115C167.022 365.156 163.475 362.419 163.475 356.945V355.014C163.475 351.794 166.377 346.803 172.181 340.042C178.307 333.28 181.209 326.036 180.886 318.309L176.05 225.581C173.793 179.217 159.767 156.035 133.972 156.035C121.075 156.035 110.918 160.865 103.502 170.524C96.4083 180.183 92.8615 193.062 92.8615 209.161V318.792C92.8615 326.197 96.2471 333.28 103.018 340.042C110.112 346.803 113.659 351.794 113.659 355.014V356.945C113.659 362.419 109.789 365.156 102.051 365.156H12.575C5.15897 365.156 1.45096 362.419 1.45096 356.945V355.014C1.45096 351.794 4.83653 346.803 11.6077 340.042C18.3788 333.28 21.7644 326.197 21.7644 318.792V78.2793C21.7644 70.5519 18.0564 63.6296 10.6404 57.5121C3.54679 51.3947 0 46.7261 0 43.5064V42.0575C0 37.2279 3.22436 33.2033 9.67307 29.9836L73.5154 1.97208C78.9968 -0.281732 83.1884 -0.603699 86.0903 1.00617C89.3147 2.61603 90.9269 5.83574 90.9269 10.6653L90.4432 155.552C105.598 137.522 126.717 128.507 153.802 128.507C178.307 128.507 199.104 136.556 216.193 152.655C233.282 168.431 242.955 193.384 245.212 227.513L251.5 317.826Z" fill="white"/>
</svg>
